<svg width="24" height="24" viewBox="0 0 24 24" fill="none" xmlns="http://www.w3.org/2000/svg">
<path d="M12 2C8.5 2 5.5 4.5 5.5 7.8C5.5 9.2 6 10.5 6.8 11.5L5 16C4.8 16.5 5.2 17 5.7 17H7.5L8.5 20C8.7 20.6 9.3 21 9.9 21H14.1C14.7 21 15.3 20.6 15.5 20L16.5 17H18.3C18.8 17 19.2 16.5 19 16L17.2 11.5C18 10.5 18.5 9.2 18.5 7.8C18.5 4.5 15.5 2 12 2Z" fill="url(#paint0_linear_memsync)"/>
<circle cx="9" cy="8" r="1.5" fill="#FFFFFF"/>
<circle cx="15" cy="8" r="1.5" fill="#FFFFFF"/>
<path d="M9 12C9 12.5 9.5 13 10 13H14C14.5 13 15 12.5 15 12" stroke="#FFFFFF" stroke-width="1.5" stroke-linecap="round"/>
<defs>
<linearGradient id="paint0_linear_memsync" x1="5.5" y1="2" x2="18.5" y2="21" gradientUnits="userSpaceOnUse">
<stop stop-color="#38BDF8"/>
<stop offset="0.5" stop-color="#0EA5E9"/>
<stop offset="1" stop-color="#0284C7"/>
</linearGradient>
</defs>
</svg>
